<svg width="327" height="42" viewBox="0 0 327 42" fill="none" xmlns="http://www.w3.org/2000/svg">
<g clip-path="url(#clip0_5_270)">
<path d="M78.8877 11.748H69.2141V37.3166H61.41V11.748H51.7139V4.4765H78.8839V11.748H78.8877Z" fill="#042642"/>
<path d="M89.3519 16.721C90.7831 14.6897 92.9561 13.6702 95.8709 13.6702C98.2237 13.6702 100.164 14.4452 101.701 15.9912C103.233 17.5411 104.001 19.6101 104.001 22.2057V37.3166H96.6876V24.8126C96.6876 23.4508 96.3692 22.405 95.7285 21.6677C95.0916 20.9342 94.1999 20.5655 93.0647 20.5655C91.9745 20.5655 91.0828 20.938 90.3897 21.679C89.6965 22.4201 89.3519 23.5035 89.3519 24.9292V37.3166H82.0386V4.51413H89.3519V16.721Z" fill="#042642"/>
<path d="M116.29 37.3166H108.976V14.306H116.29V37.3166Z" fill="#042642"/>
<path d="M135.236 13.6702C137.589 13.6702 139.53 14.4451 141.066 15.9912C142.598 17.5411 143.366 19.61 143.366 22.2056V37.3166H136.053V24.8125C136.053 23.4508 135.734 22.405 135.094 21.6677C134.457 20.9342 133.565 20.5655 132.43 20.5655C131.34 20.5655 130.448 20.9379 129.755 21.679C129.062 22.4201 128.717 23.5035 128.717 24.9292V37.3166H121.404V14.306H125.54C127.128 14.306 128.413 15.5962 128.413 17.1912C129.833 14.8439 132.108 13.6702 135.236 13.6702Z" fill="#042642"/>
<path d="M155.659 21.9273L161.338 14.3022H170.191L161.709 25.1661L170.214 37.3166H161.383L155.659 28.4276V37.3166H148.345V4.53668H155.659V21.9273Z" fill="#042642"/>
<path d="M204.765 37.3166H197.264L182.356 17.2815V37.3166H174.552V4.4765H182.027L196.934 24.5079V4.4765H204.761V37.3166H204.765Z" fill="#042642"/>
<path d="M217.616 37.3166H210.302V14.306H217.616V37.3166Z" fill="#042642"/>
<path d="M250.814 13.6702C253.447 13.6702 255.531 14.4339 257.063 15.9574C258.595 17.4809 259.363 19.5649 259.363 22.2094V37.3166H252.05V24.8125C252.05 23.4508 251.735 22.405 251.102 21.6677C250.473 20.9342 249.574 20.5655 248.405 20.5655C247.329 20.5655 246.441 20.9379 245.741 21.679C245.04 22.4201 244.688 23.5035 244.688 24.9292V37.3166H237.375V24.8125C237.375 23.4508 237.056 22.405 236.416 21.6677C235.779 20.9342 234.887 20.5655 233.752 20.5655C232.662 20.5655 231.77 20.9379 231.077 21.679C230.384 22.4201 230.039 23.5035 230.039 24.9292V37.3166H222.733V14.306H226.869C228.458 14.306 229.743 15.5962 229.743 17.1912C231.159 14.8439 233.433 13.674 236.565 13.674C238.075 13.674 239.443 14.0088 240.664 14.6821C241.886 15.3555 242.848 16.2997 243.549 17.5223C245.059 14.953 247.479 13.6702 250.814 13.6702Z" fill="#042642"/>
<path d="M277.961 13.6702C281 13.6702 283.536 14.8401 285.578 17.1762C287.62 19.516 288.639 22.3787 288.639 25.7756C288.639 28.0288 288.178 30.079 287.26 31.9335C286.342 33.7881 285.065 35.2477 283.428 36.3198C281.794 37.3919 279.969 37.926 277.961 37.926C275.174 37.926 272.986 36.9028 271.397 34.8527C271.397 36.2144 270.3 37.3166 268.943 37.3166H264.343V4.53668H271.633V16.5103C273.203 14.6182 275.316 13.6702 277.961 13.6702ZM276.212 20.5204C274.78 20.5204 273.608 21.0169 272.697 22.01C271.787 23.0031 271.33 24.2671 271.33 25.7981C271.33 27.3329 271.787 28.5931 272.697 29.5862C273.608 30.5793 274.78 31.0759 276.212 31.0759C277.662 31.0759 278.842 30.5756 279.752 29.5749C280.663 28.5743 281.12 27.3141 281.12 25.7981C281.12 24.2821 280.663 23.0219 279.752 22.0213C278.838 21.0207 277.658 20.5204 276.212 20.5204Z" fill="#042642"/>
<path d="M299.875 37.3166H292.562V4.53668H299.875V37.3166Z" fill="#042642"/>
<path d="M315.528 13.6702C318.922 13.6702 321.684 14.7912 323.812 17.037C325.936 19.2828 327 22.2019 327 25.7981C327 26.8288 326.955 27.5887 326.861 28.074H311.324C311.931 30.5304 313.569 31.7567 316.232 31.7567C318.053 31.7567 319.72 31.0834 321.234 29.7404L325.951 34.1492C323.445 36.6658 320.08 37.926 315.858 37.926C312.261 37.926 309.346 36.8238 307.121 34.6194C304.892 32.4151 303.779 29.5223 303.779 25.9411C303.779 22.3147 304.865 19.3618 307.038 17.0859C309.211 14.81 312.04 13.6702 315.528 13.6702ZM315.554 19.911C313.329 19.911 311.924 21.0846 311.351 23.4282H319.69C319.095 21.0846 317.716 19.911 315.554 19.911Z" fill="#042642"/>
<path d="M215.993 11.9097H212.19C211.152 11.9097 210.313 11.0671 210.313 10.0251V6.20691C210.313 5.1649 211.152 4.32227 212.19 4.32227H215.993C217.031 4.32227 217.87 5.1649 217.87 6.20691V10.0251C217.87 11.0671 217.027 11.9097 215.993 11.9097Z" fill="#F16058"/>
<path d="M114.536 11.9097H110.733C109.696 11.9097 108.856 11.0671 108.856 10.0251V6.20691C108.856 5.1649 109.696 4.32227 110.733 4.32227H114.536C115.574 4.32227 116.413 5.1649 116.413 6.20691V10.0251C116.413 11.0671 115.574 11.9097 114.536 11.9097Z" fill="#F16058"/>
<path d="M15.7356 0C13.3453 0 0 17.4734 0 26.2006C0 34.9279 7.04354 42 15.7356 42C24.4276 42 31.4711 34.9279 31.4711 26.2006C31.4711 17.4734 18.1259 0 15.7356 0ZM15.7356 39.7016C11.8841 39.7016 8.76321 35.6765 8.76321 30.711C8.76321 25.7455 14.6753 15.7994 15.7356 15.7994C16.7958 15.7994 22.7079 25.7455 22.7079 30.711C22.7079 35.6765 19.587 39.7016 15.7356 39.7016Z" fill="#F16058"/>
</g>
<defs>
<clipPath id="clip0_5_270">
<rect width="327" height="42" fill="white"/>
</clipPath>
</defs>
</svg>
